<?xml version="1.0" standalone="no"?>
<!DOCTYPE svg PUBLIC "-//W3C//DTD SVG 20010904//EN"
 "http://www.w3.org/TR/2001/REC-SVG-20010904/DTD/svg10.dtd">
<svg version="1.0" xmlns="http://www.w3.org/2000/svg"
 width="1200.000000pt" height="1200.000000pt" viewBox="0 0 1200.000000 1200.000000"
 preserveAspectRatio="xMidYMid meet">

<g transform="translate(0.000000,1200.000000) scale(0.100000,-0.100000)"
fill="#000000" stroke="none">
<path d="M4110 8691 c-36 -36 -46 -73 -31 -119 9 -29 40 -61 143 -147 211
-176 281 -246 316 -317 36 -71 62 -164 62 -218 0 -19 -23 -204 -50 -410 -69
-514 -240 -1813 -240 -1822 0 -5 -573 -9 -1273 -10 l-1274 -3 209 -304 210
-303 -74 -107 c-40 -58 -135 -196 -210 -306 l-138 -200 2120 -3 c1166 -1 3074
-1 4239 0 l2120 3 -210 305 c-115 167 -209 307 -209 310 1 3 94 140 208 305
l208 300 -1213 3 c-1148 2 -1213 3 -1213 20 0 23 75 537 101 690 19 109 20
133 9 205 -44 301 -273 538 -588 607 -83 19 -141 20 -1329 20 -684 0 -1243 3
-1243 7 0 4 18 138 41 298 33 236 40 307 35 380 -14 226 -96 393 -271 555
-124 115 -299 267 -322 279 -12 6 -40 11 -63 11 -32 0 -48 -6 -70 -29z m1270
-1755 c0 -14 -13 -144 -30 -291 -16 -147 -30 -273 -30 -281 0 -12 -52 -14
-335 -14 l-336 0 6 33 c3 17 19 140 35 272 17 132 33 255 35 273 l6 32 324 0
325 0 0 -24z m765 -3 c-3 -16 -19 -136 -35 -268 -17 -132 -33 -257 -36 -277
l-6 -38 -254 0 c-140 0 -254 3 -254 8 0 18 62 578 66 590 2 9 64 12 263 12
l261 0 -5 -27z m761 -10 c-3 -21 -20 -148 -36 -283 -17 -135 -33 -255 -36
-267 l-4 -23 -258 0 -258 0 37 293 c21 160 38 298 39 305 0 9 59 12 261 12
l261 0 -6 -37z m354 26 c130 -20 262 -101 336 -205 63 -88 96 -186 98 -290 0
-45 -2 -85 -5 -88 -3 -4 -142 -9 -308 -13 -255 -5 -301 -4 -301 8 0 8 16 146
37 307 42 332 26 300 143 281z m-1965 -866 c-3 -16 -14 -102 -25 -193 -11 -91
-23 -182 -26 -202 l-6 -38 -334 0 c-311 0 -334 1 -334 18 0 9 12 113 27 230
l27 212 338 0 338 0 -5 -27z m751 -10 c-3 -21 -15 -114 -26 -208 -12 -93 -23
-180 -26 -192 l-4 -23 -255 0 -255 0 0 28 c0 15 11 115 25 222 14 107 25 198
25 203 0 4 117 7 261 7 l261 0 -6 -37z m754 15 c0 -13 -11 -111 -25 -218 -14
-107 -25 -201 -25 -207 0 -10 -59 -13 -260 -13 -201 0 -260 3 -260 13 0 6 12
110 27 230 l26 217 259 0 258 0 0 -22z m850 2 c0 -12 -13 -111 -30 -222 -16
-110 -30 -204 -30 -209 0 -5 -134 -9 -301 -9 l-302 0 6 38 c3 20 15 118 27
217 12 99 23 186 25 193 3 9 73 12 305 12 295 0 300 0 300 -20z m-4443 -644
c54 -58 58 -169 6 -182 -36 -9 -57 7 -61 47 -4 42 -18 59 -47 59 -47 0 -75
-61 -65 -143 6 -45 13 -55 66 -104 121 -111 137 -129 158 -173 32 -67 29 -220
-5 -286 -36 -69 -67 -89 -142 -89 -50 0 -68 5 -95 25 -50 37 -74 98 -76 188
l-1 77 34 3 c18 2 38 -1 43 -6 5 -5 13 -37 19 -73 11 -71 35 -102 77 -97 42 5
65 49 66 121 1 93 -22 136 -110 202 -40 31 -82 68 -92 83 -40 55 -53 165 -31
247 35 129 177 185 256 101z m-548 15 c12 -22 46 -176 60 -271 6 -36 12 -76
15 -90 2 -14 10 -65 16 -115 6 -49 16 -106 20 -125 5 -19 14 -71 19 -115 5
-44 13 -99 17 -122 l7 -43 -51 0 -50 0 -12 70 c-15 89 -38 120 -89 120 -57 0
-87 -29 -101 -98 -18 -84 -24 -92 -71 -92 l-41 0 7 63 c3 34 11 87 16 117 11
67 54 339 74 475 18 121 35 204 47 228 13 25 103 24 117 -2z m1034 -3 c8 -13
22 -63 31 -113 10 -49 21 -108 27 -130 5 -22 18 -105 29 -185 11 -80 27 -185
35 -235 8 -49 18 -118 21 -153 l7 -63 -49 3 -49 3 -7 53 c-16 112 -45 142
-122 128 -45 -9 -56 -24 -76 -109 l-17 -72 -46 -3 c-26 -2 -47 0 -47 3 0 15
61 405 70 445 5 25 12 65 14 90 16 144 52 326 69 348 5 6 29 12 53 12 34 0 46
-5 57 -22z m556 9 c17 -22 49 -183 91 -462 10 -71 24 -159 30 -195 41 -250 42
-230 -19 -230 l-49 0 -7 53 c-8 59 -30 117 -48 129 -7 4 -28 8 -48 8 -49 0
-85 -30 -93 -77 -4 -21 -12 -55 -18 -75 -11 -37 -13 -38 -56 -38 l-44 0 7 53
c8 68 42 289 60 397 8 47 21 132 30 190 18 123 34 206 46 238 7 19 16 22 58
22 28 0 53 -6 60 -13z m415 -29 c8 -24 34 -99 56 -168 44 -134 107 -299 121
-314 12 -13 12 -5 9 282 l-2 243 48 -3 49 -3 3 -431 c2 -466 3 -462 -50 -449
-15 4 -32 22 -45 48 -31 63 -103 231 -138 327 -18 47 -36 84 -40 83 -4 -2 -9
-103 -10 -226 -1 -123 -5 -229 -9 -235 -9 -14 -82 -16 -91 -3 -3 6 -5 187 -4
403 1 334 3 425 8 481 1 4 19 7 40 7 37 0 40 -2 55 -42z m868 -73 c3 -64 8
-119 12 -122 12 -12 34 20 90 127 l54 105 41 3 c28 2 43 -1 46 -11 5 -12 -46
-147 -65 -172 -4 -5 -17 -38 -29 -73 -28 -79 -34 -51 89 -442 65 -204 64 -194
14 -198 -25 -2 -45 2 -51 10 -9 11 -51 143 -67 208 -11 44 -77 225 -85 233 -5
5 -16 7 -24 4 -22 -8 -31 -113 -24 -287 3 -81 2 -152 -1 -157 -4 -6 -24 -14
-44 -18 -29 -6 -38 -3 -46 12 -11 21 -9 863 2 881 4 7 24 12 45 12 l38 0 5
-115z m547 101 c8 -10 11 -80 10 -230 -1 -158 2 -220 11 -231 16 -20 84 -19
104 1 14 13 16 47 16 219 0 112 4 215 10 229 8 21 16 26 44 26 24 0 38 -6 44
-17 7 -14 10 -748 3 -860 -1 -21 -6 -23 -50 -23 l-49 0 -4 136 c-3 120 -6 138
-23 150 -24 18 -66 18 -89 1 -18 -13 -24 -75 -26 -245 l0 -43 -47 3 -48 3 -3
380 c-1 209 0 410 4 448 l6 67 38 0 c21 0 43 -6 49 -14z m674 -8 c8 -13 22
-63 31 -113 10 -49 21 -108 27 -130 5 -22 18 -105 29 -185 11 -80 27 -185 35
-235 8 -49 18 -118 21 -153 l7 -63 -49 3 -49 3 -7 53 c-16 112 -45 142 -122
128 -45 -9 -56 -24 -76 -109 l-17 -72 -46 -3 c-26 -2 -47 0 -47 3 0 15 61 405
70 445 5 25 12 65 14 90 16 144 52 326 69 348 5 6 29 12 53 12 34 0 46 -5 57
-22z m489 12 c55 -16 93 -53 130 -128 32 -64 33 -71 32 -187 0 -134 -12 -189
-55 -251 -39 -56 -38 -74 13 -272 13 -53 4 -64 -48 -60 l-39 3 -17 85 c-10 47
-22 95 -28 108 -9 21 -44 30 -54 14 -2 -4 -8 -50 -11 -102 -4 -52 -12 -98 -19
-103 -6 -4 -27 -6 -46 -5 l-35 3 0 439 c1 419 2 439 20 452 22 16 104 18 157
4z m443 -12 c3 -13 4 -214 2 -448 l-2 -425 -39 -3 c-21 -2 -43 1 -48 6 -10 10
-20 837 -11 873 4 15 15 19 49 19 37 0 44 -3 49 -22z m434 2 c66 -30 97 -80
106 -168 9 -94 12 -359 4 -462 -10 -145 -33 -192 -116 -234 -35 -17 -177 -23
-202 -7 -7 5 -16 26 -20 47 -5 29 -6 683 -2 792 1 6 10 21 21 32 28 28 147 28
209 0z m524 -2 c8 -13 22 -63 31 -113 10 -49 21 -108 27 -130 5 -22 18 -105
29 -185 11 -80 27 -185 35 -235 8 -49 18 -118 21 -153 l7 -63 -49 3 -49 3 -7
53 c-16 112 -45 142 -122 128 -45 -9 -56 -24 -76 -109 l-17 -72 -46 -3 c-26
-2 -47 0 -47 3 0 15 61 405 70 445 5 25 12 65 14 90 16 144 52 326 69 348 5 6
29 12 53 12 34 0 46 -5 57 -22z m523 -4 c72 -45 106 -108 124 -226 18 -121 -3
-244 -55 -329 l-35 -56 29 -129 c15 -71 26 -132 24 -136 -2 -5 -24 -8 -48 -8
-49 0 -51 3 -60 87 -9 85 -28 128 -56 128 -29 0 -37 -25 -38 -127 -1 -73 -2
-78 -25 -84 -13 -3 -35 -4 -47 -2 l-24 3 -5 225 c-8 339 1 643 20 665 12 15
26 17 91 12 49 -3 87 -11 105 -23z m409 4 c3 -13 4 -214 2 -448 l-2 -425 -39
-3 c-21 -2 -43 1 -48 6 -10 10 -20 837 -11 873 4 15 15 19 49 19 37 0 44 -3
49 -22z"/>
<path d="M2592 5234 c-11 -21 -27 -117 -37 -214 -4 -36 -9 -73 -11 -82 -7 -23
30 -58 60 -58 42 0 59 27 53 84 -13 114 -39 272 -47 280 -4 4 -13 0 -18 -10z"/>
<path d="M3626 5241 c-8 -12 -46 -264 -46 -303 0 -32 37 -61 72 -56 44 6 48
39 24 201 -21 139 -35 183 -50 158z"/>
<path d="M4181 5228 c-13 -34 -41 -228 -41 -284 0 -38 4 -46 25 -56 41 -18 79
0 83 39 4 41 -36 305 -48 317 -6 6 -13 -1 -19 -16z"/>
<path d="M6686 5241 c-8 -12 -46 -263 -46 -302 0 -58 83 -81 106 -29 9 20 7
56 -10 173 -21 139 -35 183 -50 158z"/>
<path d="M7180 5364 c-10 -11 -14 -66 -15 -201 -1 -221 1 -243 25 -243 30 0
77 48 97 98 26 68 23 210 -6 274 -19 42 -62 88 -81 88 -4 0 -13 -7 -20 -16z"/>
<path d="M8002 5358 c-16 -16 -17 -620 -2 -649 13 -24 61 -25 83 -1 30 33 37
98 38 333 1 237 -3 273 -38 311 -18 21 -63 24 -81 6z"/>
<path d="M8576 5241 c-8 -12 -46 -263 -46 -302 0 -58 83 -81 106 -29 9 20 7
56 -10 173 -21 139 -35 183 -50 158z"/>
<path d="M9063 5368 c-4 -7 -10 -109 -11 -225 -4 -236 -3 -240 58 -208 21 11
39 33 56 68 32 70 34 200 4 279 -30 76 -85 120 -107 86z"/>
<path d="M4659 4199 c-125 -18 -237 -86 -314 -191 -164 -221 -86 -551 160
-675 184 -94 391 -62 537 82 184 181 183 472 -1 656 -104 104 -237 149 -382
128z m172 -295 c93 -65 116 -187 52 -276 -84 -119 -249 -116 -330 6 -92 137
12 313 180 303 44 -2 67 -10 98 -33z"/>
<path d="M7010 4199 c-199 -28 -346 -163 -396 -365 -15 -59 -16 -79 -6 -148
58 -395 525 -546 795 -257 54 57 100 145 116 219 66 313 -195 596 -509 551z
m148 -285 c174 -86 125 -353 -67 -372 -61 -5 -112 11 -157 51 -110 96 -84 259
51 330 46 25 113 21 173 -9z"/>
</g>
</svg>
